<?xml version="1.0" encoding="utf-8"?>
<!-- Generator: Adobe Illustrator 27.5.0, SVG Export Plug-In . SVG Version: 6.00 Build 0)  -->
<svg version="1.1" xmlns="http://www.w3.org/2000/svg" xmlns:xlink="http://www.w3.org/1999/xlink" x="0px" y="0px"
	 viewBox="0 0 3710 3710" style="enable-background:new 0 0 3710 3710;" xml:space="preserve">
<g id="Background">
	<g>
		<g>
			<rect style="fill:#FFFFFF;" width="3710" height="3710"/>
		</g>
	</g>
</g>
<g id="Illustration">
	<g>
		<linearGradient id="SVGID_1_" gradientUnits="userSpaceOnUse" x1="3484.2153" y1="3628.5671" x2="1555.855" y2="1575.7968">
			<stop  offset="0" style="stop-color:#DAE3FE"/>
			<stop  offset="1" style="stop-color:#E9EFFD"/>
		</linearGradient>
		<path style="fill:url(#SVGID_1_);" d="M2905.227,2805.004c-71.187,73.377-134.883,116.511-183.651,149.074
			c-475.622,317.577-1019.31,226.044-1187.405,194.758c-271.2-50.476-500.131-86.085-696.823-263.788
			c-446.944-403.796-425.206-1246.146-83.686-1767.944c40.494-61.87,381.497-567.342,926.362-638.568
			c13.327-1.742,23.27-2.734,31.979-3.656c84.289-8.924,606.614-56.025,1032.517,300.797
			c60.966,51.077,159.078,143.207,250.059,283.721C3327.25,1573.179,3328.303,2368.913,2905.227,2805.004z"/>
		<g>
			<g>
				<path style="fill:#7D97F4;" d="M3062.156,658.134H652.12c-103.87,0-186.258,81.99-183.967,182.164l48.666,2128.52
					c2.099,91.809,84.043,165.5,182.978,164.747l2296.394-17.423c97.483-0.742,178.702-74.914,181.47-166.007l64.149-2111.401
					C3244.829,739.412,3164.426,658.134,3062.156,658.134z"/>
				<path style="fill:#91B3FA;" d="M2859.294,844.597l-295.921,0.17c-23.839,0.014-45.804,13.319-56.468,34.179
					c-53.879,105.403-107.557,210.412-161.037,315.032c-10.538,20.614-32.333,33.747-56.034,33.788
					c-286.819,0.505-574.146,1.01-861.985,1.516c-23.815,0.042-45.656-13.065-56.09-33.693
					c-53.005-104.793-106.243-210.045-159.716-315.76c-10.581-20.919-32.646-34.267-56.674-34.253l-299.056,0.172
					c-103.369,0.059-185.677,80.966-183.788,180.367l33.644,1769.795c1.756,92.389,83.603,166.464,182.761,165.761l1921.886-13.625
					c97.928-0.695,179.243-75.402,181.683-167.169l46.737-1757.435C3041.861,924.762,2961.328,844.538,2859.294,844.597z"/>
				<path style="fill:#FFFFFF;" d="M2344.593,866.84c-8.527-13.637-23.783-21.934-40.327-21.925
					c-295.441,0.17-591.423,0.34-887.946,0.51c-16.648,0.01-32.07,8.317-40.759,22.015c-8.686,13.692-9.395,30.781-1.888,45.161
					c36.161,69.268,72.217,138.335,108.169,207.205c10.567,20.24,32.158,33.025,55.655,32.989
					c214.881-0.327,429.477-0.654,643.788-0.98c23.419-0.036,44.989-12.841,55.671-33.082
					c36.31-68.797,72.708-137.759,109.194-206.892C2353.718,897.503,2353.115,880.47,2344.593,866.84z"/>
				<g>
					
						<linearGradient id="SVGID_00000084525764718197600180000004869330346660888506_" gradientUnits="userSpaceOnUse" x1="1849.7134" y1="949.3953" x2="1871.2825" y2="949.3953">
						<stop  offset="0" style="stop-color:#09005D"/>
						<stop  offset="1" style="stop-color:#1A0F91"/>
					</linearGradient>
					<path style="fill:url(#SVGID_00000084525764718197600180000004869330346660888506_);" d="M1870.904,997.885
						c-0.02,5.02-4.258,11.772-9.452,11.772h-2.378c-5.194,0-9.379-6.731-9.36-11.751l0.339-99.702
						c0.018-5.04,4.226-9.069,9.431-9.069h2.384c5.205,0,9.437,4.016,9.416,9.055L1870.904,997.885z"/>
					<g>
						<g>
							
								<linearGradient id="SVGID_00000123409866811328060870000010235506135864662459_" gradientUnits="userSpaceOnUse" x1="2251.0044" y1="1715.2162" x2="2271.2236" y2="1715.2162" gradientTransform="matrix(0.8378 -0.5459 0.5459 0.8378 -1120.8318 761.2312)">
								<stop  offset="0" style="stop-color:#09005D"/>
								<stop  offset="1" style="stop-color:#1A0F91"/>
							</linearGradient>
							<path style="fill:url(#SVGID_00000123409866811328060870000010235506135864662459_);" d="M1746.019,1000.866
								c2.83,4.203,1.591,9.835-2.768,12.58l0,0c-4.358,2.744-10.186,1.563-13.017-2.638l-56.499-83.844
								c-2.842-4.217-1.608-9.87,2.756-12.624l0,0c4.365-2.755,10.207-1.567,13.048,2.652L1746.019,1000.866z"/>
							
								<linearGradient id="SVGID_00000152944617711714839040000008603746972558662799_" gradientUnits="userSpaceOnUse" x1="2218.8225" y1="2206.3848" x2="2239.1301" y2="2206.3848" gradientTransform="matrix(0.6144 -0.789 0.789 0.6144 -1513.4514 1439.8477)">
								<stop  offset="0" style="stop-color:#09005D"/>
								<stop  offset="1" style="stop-color:#1A0F91"/>
							</linearGradient>
							<path style="fill:url(#SVGID_00000152944617711714839040000008603746972558662799_);" d="M1643.548,1060.27
								c4.1,3.073,4.836,8.772,1.646,12.728l0,0c-3.19,3.956-9.098,4.672-13.197,1.601l-81.775-61.268
								c-4.112-3.081-4.861-8.794-1.672-12.761l0,0c3.189-3.968,9.108-4.685,13.221-1.603L1643.548,1060.27z"/>
						</g>
						<g>
							
								<linearGradient id="SVGID_00000060742176852465986090000016875687560014347926_" gradientUnits="userSpaceOnUse" x1="332.9846" y1="465.2417" x2="353.533" y2="465.2417" gradientTransform="matrix(-0.8378 -0.5459 -0.5459 0.8378 2549.4949 761.2312)">
								<stop  offset="0" style="stop-color:#09005D"/>
								<stop  offset="1" style="stop-color:#1A0F91"/>
							</linearGradient>
							<path style="fill:url(#SVGID_00000060742176852465986090000016875687560014347926_);" d="M1971.567,1000.628
								c-2.859,4.207-1.664,9.832,2.667,12.565l0,0c4.331,2.733,10.158,1.54,13.017-2.665l57.034-83.872
								c2.868-4.218,1.68-9.861-2.653-12.605l0,0c-4.334-2.745-10.173-1.549-13.041,2.67L1971.567,1000.628z"/>
							
								<linearGradient id="SVGID_00000061471976595335170470000013374082191899583153_" gradientUnits="userSpaceOnUse" x1="813.4216" y1="400.5716" x2="833.6547" y2="400.5716" gradientTransform="matrix(-0.6144 -0.789 -0.789 0.6144 2942.1145 1439.8477)">
								<stop  offset="0" style="stop-color:#09005D"/>
								<stop  offset="1" style="stop-color:#1A0F91"/>
							</linearGradient>
							<path style="fill:url(#SVGID_00000061471976595335170470000013374082191899583153_);" d="M2073.375,1059.738
								c-4.112,3.079-4.891,8.773-1.74,12.715l0,0c3.151,3.942,9.038,4.643,13.149,1.565l81.976-61.361
								c4.12-3.083,4.91-8.788,1.764-12.741l0,0c-3.146-3.953-9.038-4.657-13.159-1.572L2073.375,1059.738z"/>
						</g>
					</g>
				</g>
				<g>
					<defs>
						<path id="SVGID_00000058570382415279193830000002269958882663536555_" d="M2344.593,866.84
							c-8.527-13.637-23.783-21.934-40.327-21.925c-295.441,0.17-591.423,0.34-887.946,0.51c-16.648,0.01-32.07,8.317-40.759,22.015
							c-8.686,13.692-9.395,30.781-1.888,45.161c36.161,69.268,72.217,138.335,108.169,207.205
							c10.567,20.24,32.158,33.025,55.655,32.989c214.881-0.327,429.477-0.654,643.788-0.98
							c23.419-0.036,44.989-12.841,55.671-33.082c36.31-68.797,72.708-137.759,109.194-206.892
							C2353.718,897.503,2353.115,880.47,2344.593,866.84z"/>
					</defs>
					<clipPath id="SVGID_00000016036489964062932380000001985623853610372524_">
						<use xlink:href="#SVGID_00000058570382415279193830000002269958882663536555_"  style="overflow:visible;"/>
					</clipPath>
					
						<linearGradient id="SVGID_00000139283268609872826200000003574264362148747182_" gradientUnits="userSpaceOnUse" x1="2134.5364" y1="928.382" x2="1362.1581" y2="1588.9698">
						<stop  offset="0" style="stop-color:#E1473D"/>
						<stop  offset="1" style="stop-color:#E9605A"/>
					</linearGradient>
					
						<path style="clip-path:url(#SVGID_00000016036489964062932380000001985623853610372524_);fill:url(#SVGID_00000139283268609872826200000003574264362148747182_);" d="
						M1875.03,1274.864c-0.032,7.692-6.556,13.414-14.558,13.44l-2.625,0.008c-8.003,0.026-14.458-5.693-14.431-13.387
						l0.806-223.712c0.027-7.763,6.567-11.427,14.609-11.427h2.638c8.042,0,14.537,3.627,14.505,11.389L1875.03,1274.864z"/>
				</g>
			</g>
			<g>
				<g>
					
						<linearGradient id="SVGID_00000054984142700241944500000017084384486528124036_" gradientUnits="userSpaceOnUse" x1="571.084" y1="1173.512" x2="884.1768" y2="1173.512">
						<stop  offset="0" style="stop-color:#DAE3FE"/>
						<stop  offset="1" style="stop-color:#E9EFFD"/>
					</linearGradient>
					<path style="fill:url(#SVGID_00000054984142700241944500000017084384486528124036_);" d="M591.31,1609.978
						c-2.914,0.009-5.324-2.23-5.382-5.004l-14.811-708.277c-1.837-87.867,73.281-159.594,167.41-159.617l140.216-0.034
						c2.958-0.001,5.391,2.318,5.433,5.185c0.043,2.866-2.321,5.185-5.278,5.186l-140.189,0.038
						c-88.195,0.024-158.594,67.076-156.893,149.234l14.665,708.254C596.54,1607.717,594.224,1609.969,591.31,1609.978z"/>
				</g>
				<g>
					
						<linearGradient id="SVGID_00000047043475928458972660000008289177266131732868_" gradientUnits="userSpaceOnUse" x1="3088.1172" y1="2628.4688" x2="3113.7991" y2="2628.4688">
						<stop  offset="0" style="stop-color:#DAE3FE"/>
						<stop  offset="1" style="stop-color:#E9EFFD"/>
					</linearGradient>
					<path style="fill:url(#SVGID_00000047043475928458972660000008289177266131732868_);" d="M3093.047,2903.508
						c-2.796,0.019-5.003-2.081-4.928-4.697l15.441-540.52c0.076-2.673,2.43-4.847,5.257-4.863c2.827-0.015,5.056,2.136,4.98,4.809
						l-15.551,540.503C3098.171,2901.357,3095.843,2903.488,3093.047,2903.508z"/>
				</g>
			</g>
		</g>
		<g>
			<path style="fill:#7D97F4;" d="M3101.37,3080.901l-67.435-6.99c-35.347-41.436-70.695-80.915-106.042-122.351
				c-8.39-9.834-20.706-13.552-33.632-13.552c-238.19,0-476.381,0-714.572,0c-12.94,0-25.235,3.707-33.633,13.552
				c-35.347,41.436-70.694,81.893-106.041,123.329l-67.693,6.502l0.154,90.634c0.281,5.536,1.508,12.02,3.917,17.237
				c7.221,15.644,22.88,26.617,40.111,26.617c346.981,0,693.961,0,1040.943,0c17.237,0,32.902-11.077,40.127-26.725
				c2.411-5.222,3.636-11.294,3.915-16.834L3101.37,3080.901z"/>
			
				<linearGradient id="SVGID_00000141430482056449172000000012917270706177737129_" gradientUnits="userSpaceOnUse" x1="2337.9951" y1="3435.2617" x2="3365.782" y2="1637.474">
				<stop  offset="0" style="stop-color:#4F52FF"/>
				<stop  offset="1" style="stop-color:#4042E2"/>
			</linearGradient>
			<path style="fill:url(#SVGID_00000141430482056449172000000012917270706177737129_);" d="M3091.072,3057
				c-54.393-63.763-108.786-123.796-163.178-187.559c-8.39-9.834-20.706-11.781-33.632-11.781c-238.19,0-476.381,0-714.572,0
				c-12.94,0-25.235,1.937-33.633,11.781c-54.393,63.763-108.785,125.659-163.178,189.421
				c-11.182,13.108-13.708,31.772-6.485,47.416c7.221,15.644,22.88,25.903,40.111,25.903c346.981,0,693.961,0,1040.943,0
				c17.237,0,32.902-11.173,40.127-26.822C3104.798,3089.71,3102.259,3070.113,3091.072,3057z"/>
			<g>
				<path style="fill:#7D97F4;" d="M2498.98,3105.4c-32.403,0-57.738-13.912-69.507-28.994c-10.77-13.806-9.012-32.782,4.946-49.565
					c7.472-9.545,23.129-21.876,40.186-21.876h124.72c17.094,0,32.749,9.701,40.21,19.256c13.954,16.778,15.712,38.62,4.946,52.421
					c-11.773,15.087-37.114,28.759-69.528,28.759H2498.98z"/>
				<path style="opacity:0.78;fill:#FFFFFF;" d="M2599.326,3021.704c-41.567,0-83.135,0-124.702,0
					c-7.022,0-16.907,8.655-22.075,15.386c-22.403,26.723-1.608,51.571,46.449,51.571c25.318,0,50.636,0,75.954,0
					c48.058,0,68.853-24.85,46.448-51.571C2616.236,3030.34,2606.349,3021.704,2599.326,3021.704z"/>
			</g>
			
				<linearGradient id="SVGID_00000059276607937753542290000012742393050691726251_" gradientUnits="userSpaceOnUse" x1="1312.2148" y1="3960.9065" x2="1312.2148" y2="4080.6357" gradientTransform="matrix(0.5985 -0.7354 0.7273 0.5919 -1176.9614 1623.8621)">
				<stop  offset="0" style="stop-color:#E1473D"/>
				<stop  offset="1" style="stop-color:#E9605A"/>
			</linearGradient>
			<path style="fill:url(#SVGID_00000059276607937753542290000012742393050691726251_);" d="M2529.978,3025.9l5.047,41.463
				c0.051,0.415,0.399,0.725,0.816,0.728c0.417,0.003,0.775-0.303,0.84-0.717l7.253-46.505
				C2543.933,3020.869,2528.53,3013.983,2529.978,3025.9z"/>
		</g>
		<g>
			<g>
				
					<linearGradient id="SVGID_00000078764642119549152260000005945775212062960003_" gradientUnits="userSpaceOnUse" x1="2253.8787" y1="2912.0376" x2="1631.182" y2="2215.6895">
					<stop  offset="0" style="stop-color:#FF928E"/>
					<stop  offset="1" style="stop-color:#FE7062"/>
				</linearGradient>
				
					<circle style="fill:url(#SVGID_00000078764642119549152260000005945775212062960003_);" cx="1527.363" cy="2099.591" r="292.031"/>
				
					<linearGradient id="SVGID_00000020386851884821105980000001296066530534487209_" gradientUnits="userSpaceOnUse" x1="1881.1199" y1="2609.1875" x2="361.2026" y2="419.7048">
					<stop  offset="0" style="stop-color:#FF928E"/>
					<stop  offset="1" style="stop-color:#FE7062"/>
				</linearGradient>
				
					<circle style="fill:url(#SVGID_00000020386851884821105980000001296066530534487209_);" cx="1527.363" cy="2099.591" r="282.321"/>
				<path style="opacity:0.78;fill:#FFFFFF;" d="M1267.113,2088.743c-0.053,0-0.107,0-0.159-0.003
					c-1.646-0.087-2.908-1.491-2.822-3.134c0.58-11.092,1.868-22.23,3.832-33.11c0.291-1.619,1.832-2.697,3.465-2.406
					c1.621,0.294,2.697,1.844,2.404,3.466c-1.917,10.631-3.176,21.52-3.745,32.358
					C1270.005,2087.508,1268.688,2088.743,1267.113,2088.743z"/>
				<path style="opacity:0.78;fill:#FFFFFF;" d="M1294.562,1985.296c-0.451,0-0.911-0.102-1.342-0.321
					c-1.471-0.743-2.061-2.537-1.318-4.005c45.138-89.425,135.36-144.977,235.46-144.977c15.964,0,31.962,1.438,47.55,4.282
					c1.621,0.294,2.696,1.847,2.4,3.469c-0.294,1.623-1.843,2.706-3.469,2.397c-15.236-2.776-30.873-4.182-46.481-4.182
					c-97.835,0-186.017,54.297-230.136,141.697C1296.703,1984.696,1295.653,1985.296,1294.562,1985.296z"/>
				
					<ellipse transform="matrix(0.7071 -0.7071 0.7071 0.7071 -1039.8287 1701.1157)" style="opacity:0.9;fill:#FFFFFF;" cx="1533.514" cy="2105.742" rx="238.95" ry="238.95"/>
			</g>
			<g>
				
					<linearGradient id="SVGID_00000039132648747973306590000006813741691025599379_" gradientUnits="userSpaceOnUse" x1="1380.7791" y1="2128.7544" x2="1697.5919" y2="2128.7544">
					<stop  offset="0" style="stop-color:#E1473D"/>
					<stop  offset="1" style="stop-color:#E9605A"/>
				</linearGradient>
				<path style="fill:url(#SVGID_00000039132648747973306590000006813741691025599379_);" d="M1608.744,1988.864
					c-28.182,0-53.281,14.779-69.558,37.805c-16.277-23.025-41.376-37.805-69.558-37.805c-49.069,0-88.848,44.751-88.848,99.954
					c0,49.256,85.162,139.519,140.467,175.005c10.827,6.948,24.847,6.335,35.057-1.49
					c47.582-36.463,141.289-124.934,141.289-173.515C1697.592,2033.615,1657.813,1988.864,1608.744,1988.864z"/>
				
					<linearGradient id="SVGID_00000060741428380293070830000000820929883354669227_" gradientUnits="userSpaceOnUse" x1="1563.3964" y1="2010.6606" x2="1439.2635" y2="2379.5117">
					<stop  offset="0" style="stop-color:#FEBBBA"/>
					<stop  offset="1" style="stop-color:#FF928E"/>
				</linearGradient>
				<path style="fill:url(#SVGID_00000060741428380293070830000000820929883354669227_);" d="M1545.098,2174.481
					c-0.124,0-0.247-0.003-0.371-0.007c-3.573-0.14-6.761-2.283-8.241-5.537l-41.36-90.992l-39.99,43.801
					c-1.792,1.962-4.327,3.08-6.985,3.08h-101.675c-5.223,0-9.458-4.235-9.458-9.458c0-5.223,4.235-9.458,9.458-9.458h97.504
					l46.842-51.304c2.143-2.347,5.326-3.46,8.461-2.965c3.139,0.497,5.82,2.535,7.135,5.429l39.503,86.91l40.554-73.383
					c1.753-3.173,5.176-5.064,8.78-4.87c3.619,0.192,6.809,2.435,8.215,5.774l16.479,39.138h88.302c5.223,0,9.458,4.235,9.458,9.458
					s-4.235,9.458-9.458,9.458h-94.582c-3.806,0-7.24-2.281-8.717-5.788l-11.35-26.959l-40.226,72.79
					C1551.705,2172.618,1548.53,2174.481,1545.098,2174.481z"/>
			</g>
		</g>
		<g>
			<g>
				<g>
					
						<linearGradient id="SVGID_00000029756111162934212040000009218673947962258622_" gradientUnits="userSpaceOnUse" x1="2179.9241" y1="2232.8701" x2="1486.9218" y2="1272.0411">
						<stop  offset="0" style="stop-color:#FF928E"/>
						<stop  offset="1" style="stop-color:#FE7062"/>
					</linearGradient>
					
						<circle style="fill:url(#SVGID_00000029756111162934212040000009218673947962258622_);" cx="1564.676" cy="1379.845" r="292.031"/>
					
						<linearGradient id="SVGID_00000021828659618715244170000005828781129237740985_" gradientUnits="userSpaceOnUse" x1="2243.4622" y1="2357.6548" x2="723.5449" y2="168.1723">
						<stop  offset="0" style="stop-color:#FF928E"/>
						<stop  offset="1" style="stop-color:#FE7062"/>
					</linearGradient>
					
						<circle style="fill:url(#SVGID_00000021828659618715244170000005828781129237740985_);" cx="1564.676" cy="1379.845" r="282.32"/>
					<path style="opacity:0.78;fill:#FFFFFF;" d="M1304.426,1368.997c-0.053,0-0.107,0-0.159-0.003
						c-1.646-0.087-2.908-1.491-2.822-3.134c0.579-11.092,1.868-22.229,3.832-33.109c0.291-1.62,1.832-2.698,3.465-2.406
						c1.621,0.294,2.697,1.844,2.404,3.466c-1.917,10.631-3.176,21.52-3.744,32.358
						C1307.318,1367.762,1306.001,1368.997,1304.426,1368.997z"/>
					<path style="opacity:0.78;fill:#FFFFFF;" d="M1331.876,1265.551c-0.452,0-0.911-0.102-1.342-0.321
						c-1.471-0.743-2.061-2.537-1.318-4.005c45.138-89.425,135.36-144.977,235.46-144.977c15.963,0,31.962,1.439,47.55,4.282
						c1.621,0.294,2.695,1.847,2.4,3.469c-0.294,1.623-1.843,2.706-3.469,2.397c-15.236-2.776-30.873-4.182-46.48-4.182
						c-97.835,0-186.018,54.297-230.137,141.697C1334.016,1264.95,1332.966,1265.551,1331.876,1265.551z"/>
					
						<ellipse transform="matrix(0.7071 -0.7071 0.7071 0.7071 -519.9628 1516.6915)" style="opacity:0.9;fill:#FFFFFF;" cx="1570.827" cy="1385.996" rx="238.95" ry="238.95"/>
				</g>
			</g>
			<g>
				<g>
					
						<linearGradient id="SVGID_00000049926299059198300130000013001633656581588406_" gradientUnits="userSpaceOnUse" x1="1432.2169" y1="1367.677" x2="1622.509" y2="1367.677">
						<stop  offset="0" style="stop-color:#E1473D"/>
						<stop  offset="1" style="stop-color:#E9605A"/>
					</linearGradient>
					<path style="fill:url(#SVGID_00000049926299059198300130000013001633656581588406_);" d="M1477.173,1530.969
						c-5.417-5.418-52.671-54.014-43.866-91.748c2.05-8.79,7.065-15.346,14.503-18.967c20.915-10.173,56.057,6.194,81.721,18.141
						c4.113,1.918,7.854,3.659,11.047,5.049c5.23,2.273,26.213-7.815,43.467-30.425c10.312-13.51,31.645-48.24,7.075-78.801
						c-48.578-60.426-26.01-127.029-25.025-129.834l18.918,6.61c-0.823,2.389-19.707,59.131,21.726,110.667
						c23.205,28.864,20.677,67.561-6.763,103.518c-18.317,24.003-48.15,45.011-67.388,36.642c-3.329-1.448-7.23-3.262-11.517-5.258
						c-18.23-8.49-52.164-24.296-64.493-18.288c-1.378,0.672-2.903,1.849-3.756,5.499c-5.313,22.773,26.842,61.32,38.525,73.029
						L1477.173,1530.969z"/>
				</g>
				
					<linearGradient id="SVGID_00000008862112533365891580000002010847915629666489_" gradientUnits="userSpaceOnUse" x1="1491.684" y1="1394.0059" x2="1696.2633" y2="1394.0059">
					<stop  offset="0" style="stop-color:#E1473D"/>
					<stop  offset="1" style="stop-color:#E9605A"/>
				</linearGradient>
				<path style="fill:url(#SVGID_00000008862112533365891580000002010847915629666489_);" d="M1683.656,1310.832
					c-9.304-14.989-24.705-25.146-42.144-27.819c-34.32-5.264-57.987,18.054-65.578,49.715
					c-3.084,12.862-4.906,27.015-12.019,38.449c-9.878,15.88-25.371,16.506-41.217,23.256
					c-29.966,12.765-38.364,50.848-24.554,77.915c19.638,38.485,76.393,39.147,111.299,24.753
					C1669.465,1472.348,1720.906,1370.843,1683.656,1310.832z"/>
			</g>
		</g>
		<g>
			<g>
				<g>
					
						<linearGradient id="SVGID_00000053512653418081635520000004114532884709116606_" gradientUnits="userSpaceOnUse" x1="2043.3799" y1="3237.1628" x2="1547.8999" y2="2818.6824">
						<stop  offset="0" style="stop-color:#FF928E"/>
						<stop  offset="1" style="stop-color:#FE7062"/>
					</linearGradient>
					
						<circle style="fill:url(#SVGID_00000053512653418081635520000004114532884709116606_);" cx="1513.416" cy="2789.558" r="292.031"/>
					
						<linearGradient id="SVGID_00000034777903492595257450000008215612305182193596_" gradientUnits="userSpaceOnUse" x1="1548.496" y1="2840.0911" x2="28.5787" y2="650.6084">
						<stop  offset="0" style="stop-color:#FF928E"/>
						<stop  offset="1" style="stop-color:#FE7062"/>
					</linearGradient>
					
						<circle style="fill:url(#SVGID_00000034777903492595257450000008215612305182193596_);" cx="1513.416" cy="2789.558" r="282.321"/>
					<path style="opacity:0.78;fill:#FFFFFF;" d="M1253.166,2778.71c-0.053,0-0.107,0-0.159-0.003
						c-1.646-0.087-2.908-1.491-2.822-3.134c0.58-11.092,1.868-22.23,3.832-33.11c0.291-1.619,1.832-2.697,3.465-2.406
						c1.621,0.294,2.697,1.844,2.404,3.466c-1.916,10.631-3.176,21.52-3.744,32.358
						C1256.058,2777.475,1254.742,2778.71,1253.166,2778.71z"/>
					<path style="opacity:0.78;fill:#FFFFFF;" d="M1280.616,2675.263c-0.452,0-0.91-0.102-1.342-0.321
						c-1.471-0.743-2.061-2.537-1.318-4.006c45.138-89.425,135.36-144.977,235.46-144.977c15.964,0,31.962,1.438,47.55,4.282
						c1.621,0.294,2.696,1.847,2.4,3.469c-0.295,1.623-1.843,2.706-3.469,2.397c-15.237-2.776-30.873-4.182-46.481-4.182
						c-97.835,0-186.017,54.296-230.136,141.697C1282.756,2674.663,1281.706,2675.263,1280.616,2675.263z"/>
					
						<ellipse transform="matrix(0.7071 -0.7071 0.7071 0.7071 -1531.7938 1893.3406)" style="opacity:0.9;fill:#FFFFFF;" cx="1519.567" cy="2795.709" rx="238.95" ry="238.95"/>
				</g>
			</g>
			
				<linearGradient id="SVGID_00000024695944129711295480000011129214759434621606_" gradientUnits="userSpaceOnUse" x1="1424.2166" y1="2780.0403" x2="1602.0845" y2="2780.0403">
				<stop  offset="0" style="stop-color:#E1473D"/>
				<stop  offset="1" style="stop-color:#E9605A"/>
			</linearGradient>
			<path style="fill:url(#SVGID_00000024695944129711295480000011129214759434621606_);" d="M1602.084,2832.224
				c0,49.116-39.817,88.934-88.934,88.934c-49.117,0-88.934-39.817-88.934-88.934c0-49.117,69.874-193.301,88.934-193.301
				C1535.599,2638.923,1602.084,2783.107,1602.084,2832.224z"/>
		</g>
		<g>
			
				<linearGradient id="SVGID_00000099621546395018204490000000881244468930480545_" gradientUnits="userSpaceOnUse" x1="3360.5049" y1="3088.7358" x2="2839.6809" y2="3655.2468" gradientTransform="matrix(1 0 0 1 -2394.1074 0)">
				<stop  offset="0" style="stop-color:#09005D"/>
				<stop  offset="1" style="stop-color:#1A0F91"/>
			</linearGradient>
			<path style="fill:url(#SVGID_00000099621546395018204490000000881244468930480545_);" d="M801.764,3130.938
				c0,0-5.395,30.534-8.039,60.761c-1.034,11.813,8.074,22.069,19.922,22.564c40.253,1.676,126.355,4.936,157.251,3.557
				c4.645-0.208,7.682-4.962,5.963-9.282l0,0c-1.441-3.619-4.219-6.546-7.758-8.173l-142.226-65.367L801.764,3130.938z"/>
			
				<linearGradient id="SVGID_00000020378085146232715300000008873722831210802089_" gradientUnits="userSpaceOnUse" x1="3191.4531" y1="3130.812" x2="3237.7151" y2="3130.812" gradientTransform="matrix(1 0 0 1 -2394.1074 0)">
				<stop  offset="0" style="stop-color:#FEBBBA"/>
				<stop  offset="1" style="stop-color:#FF928E"/>
			</linearGradient>
			<path style="fill:url(#SVGID_00000020378085146232715300000008873722831210802089_);" d="M797.346,3112.997l4.334,36.523
				c0,0,24.913,11.599,41.928-1.461l-10.318-40.703L797.346,3112.997z"/>
			
				<linearGradient id="SVGID_00000052814639113679970390000010073528404509837489_" gradientUnits="userSpaceOnUse" x1="3401.5142" y1="2448.0718" x2="2958.3423" y2="3048.7341" gradientTransform="matrix(1 0 0 1 -2394.1074 0)">
				<stop  offset="0" style="stop-color:#09005D"/>
				<stop  offset="1" style="stop-color:#1A0F91"/>
			</linearGradient>
			<path style="fill:url(#SVGID_00000052814639113679970390000010073528404509837489_);" d="M800.602,2426.331
				c-1.871,9.538-10.048,475.971,39.811,684.997c0.814,3.41-0.915,6.926-4.162,8.253c-7.647,3.123-22.639,7.648-40.605,8.252
				c-5.564,0.187-10.553-3.429-12.122-8.771c-14.252-48.496-82.544-291.48-91.453-523.595c-9.955-259.365,0-8.831,0-8.831
				l5.838-160.324L800.602,2426.331z"/>
			
				<linearGradient id="SVGID_00000168837349238336311440000005731330879319322761_" gradientUnits="userSpaceOnUse" x1="3243.6665" y1="2981.3193" x2="2722.8403" y2="3547.8325" gradientTransform="matrix(1 0 0 1 -2394.1074 0)">
				<stop  offset="0" style="stop-color:#09005D"/>
				<stop  offset="1" style="stop-color:#1A0F91"/>
			</linearGradient>
			<path style="fill:url(#SVGID_00000168837349238336311440000005731330879319322761_);" d="M638.157,3146.867
				c0,0-8.585,15.415-16.898,56.377c-1.501,7.398,3.667,14.478,11.18,15.217c13.291,1.306,33.753,2.987,50.143,2.874
				c7.556-0.052,13.452-6.631,12.542-14.131c-1.816-14.952-7.472-39.482-24.945-58.602L638.157,3146.867z"/>
			
				<linearGradient id="SVGID_00000143580006202425904170000002523959078339134103_" gradientUnits="userSpaceOnUse" x1="3024.7241" y1="3128.4392" x2="3064.6675" y2="3128.4392" gradientTransform="matrix(1 0 0 1 -2394.1074 0)">
				<stop  offset="0" style="stop-color:#FEBBBA"/>
				<stop  offset="1" style="stop-color:#FF928E"/>
			</linearGradient>
			<path style="fill:url(#SVGID_00000143580006202425904170000002523959078339134103_);" d="M630.617,3099.889l10.126,55.234
				c0,0,10.013,7.447,29.818,2.048l-4.833-59.428L630.617,3099.889z"/>
			
				<linearGradient id="SVGID_00000118359127714828492860000000161253450495044523_" gradientUnits="userSpaceOnUse" x1="3322.5305" y1="2389.7966" x2="2879.3586" y2="2990.459" gradientTransform="matrix(1 0 0 1 -2394.1074 0)">
				<stop  offset="0" style="stop-color:#09005D"/>
				<stop  offset="1" style="stop-color:#1A0F91"/>
			</linearGradient>
			<path style="fill:url(#SVGID_00000118359127714828492860000000161253450495044523_);" d="M603.262,2440.645
				c-40.777,246.094,8.845,608.242,25.581,679.123c1.025,4.34,4.528,7.665,8.925,8.394c7.471,1.239,19.77,2.249,31.894-1.273
				c4.178-1.213,7.113-4.98,7.284-9.329c2.245-57.305-1.796-409.103,36.199-548.135c1.925-7.046,6.227-13.19,12.181-17.423
				l73.746-52.427l5.654-84.744L603.262,2440.645z"/>
			
				<linearGradient id="SVGID_00000014592895809326152950000008264593945829252490_" gradientUnits="userSpaceOnUse" x1="2985.0103" y1="2223.2549" x2="3382.4089" y2="2223.2549" gradientTransform="matrix(1 0 0 1 -2394.1074 0)">
				<stop  offset="0" style="stop-color:#09005D"/>
				<stop  offset="1" style="stop-color:#1A0F91"/>
			</linearGradient>
			<path style="fill:url(#SVGID_00000014592895809326152950000008264593945829252490_);" d="M863.096,1974.344
				c-122.202-2.019-252.655,35.383-252.655,35.383c-36.426,212.544-10.753,454.401-10.753,454.401
				c94.606,24.81,201.327-15.168,201.327-15.168c15.724-88.838,89.089-338.859,89.089-338.859
				c59.708-7.409,46.74-56.406,87.245-79.181c-30.896-35.813,16.693-18.448,10.366-45.386
				C944.509,1998.962,900.788,1974.967,863.096,1974.344z"/>
			<path style="fill:#FFFFFF;" d="M1224.06,1794.346c-12.005-14.499-27.198-7.64-27.198-7.64
				c-17.984,75.963-112.275,137.555-209.148,167.661c6.327,26.939,20.892,72.51,51.788,108.323
				C1200.271,1972.296,1224.06,1794.346,1224.06,1794.346z"/>
			<g>
				
					<linearGradient id="SVGID_00000129927957490770959280000015451033158290929815_" gradientUnits="userSpaceOnUse" x1="6882.2612" y1="1884.2708" x2="7040.8555" y2="2245.1079" gradientTransform="matrix(-1 0 0 1 8053.6704 0)">
					<stop  offset="0" style="stop-color:#FEBBBA"/>
					<stop  offset="1" style="stop-color:#FF928E"/>
				</linearGradient>
				<path style="fill:url(#SVGID_00000129927957490770959280000015451033158290929815_);" d="M1221.146,1798.034
					c1.256,3.993-13.29,10.073-21.854-6.259c-0.3-7.827-5.059-41.36-0.383-47.737c24.91-33.961,73.206-76.533,73.206-76.533
					c8.162,8.054,1.438,15.967,1.438,15.967l-23.429,24.406c4.901,8.856,10.878,16.331,13.68,27.042
					c2.121,8.111,0.824,16.781-3.273,24.163c-4.113,7.409-9.724,17.041-15.028,24.578
					C1235.462,1797.926,1221.146,1798.034,1221.146,1798.034z"/>
				
					<linearGradient id="SVGID_00000168812192423917509060000017598657854299539089_" gradientUnits="userSpaceOnUse" x1="3617.0327" y1="1764.0992" x2="3683.207" y2="1662.356" gradientTransform="matrix(1 0 0 1 -2394.1074 0)">
					<stop  offset="0" style="stop-color:#FEBBBA"/>
					<stop  offset="1" style="stop-color:#FF928E"/>
				</linearGradient>
				<path style="fill:url(#SVGID_00000168812192423917509060000017598657854299539089_);" d="M1239.876,1723.714l-21.35,18.099
					l-6.703,18.02l19.036,21.118c0,0,6.4-35.755,11.157-43.494C1246.773,1729.719,1244.307,1725.977,1239.876,1723.714z"/>
			</g>
			
				<linearGradient id="SVGID_00000169532874582785645550000017621474172599182258_" gradientUnits="userSpaceOnUse" x1="473.1439" y1="2107.6711" x2="652.9298" y2="2107.6711">
				<stop  offset="0" style="stop-color:#DAE3FE"/>
				<stop  offset="1" style="stop-color:#E9EFFD"/>
			</linearGradient>
			<path style="fill:url(#SVGID_00000169532874582785645550000017621474172599182258_);" d="M652.93,2124.758l-46.871-118.328
				c0,0-114.144,77.555-132.915,175.888c21.567,1.588,60.813,7.198,99.227,26.594C580.811,2162.482,652.93,2124.758,652.93,2124.758
				z"/>
			
				<linearGradient id="SVGID_00000136388643706903041720000004070597082509580720_" gradientUnits="userSpaceOnUse" x1="3094.3142" y1="1938.9113" x2="3212.5669" y2="1938.9113" gradientTransform="matrix(1 0 0 1 -2394.1074 0)">
				<stop  offset="0" style="stop-color:#FEBBBA"/>
				<stop  offset="1" style="stop-color:#FF928E"/>
			</linearGradient>
			<path style="fill:url(#SVGID_00000136388643706903041720000004070597082509580720_);" d="M739.316,1875.135l-38.883,112.446
				c-0.643,1.863,0.121,3.926,1.846,4.879c10.6,5.86,48.786,22.799,94.804-6.377c4.794-3.039,8.057-7.995,8.785-13.626
				l12.591-97.322H739.316z"/>
			
				<linearGradient id="SVGID_00000001646797654119885640000007419787181148354725_" gradientUnits="userSpaceOnUse" x1="568.5111" y1="2378.7058" x2="781.3273" y2="2378.7058">
				<stop  offset="0" style="stop-color:#DAE3FE"/>
				<stop  offset="1" style="stop-color:#E9EFFD"/>
			</linearGradient>
			<path style="fill:url(#SVGID_00000001646797654119885640000007419787181148354725_);" d="M665.52,1994.331l46.398-39.405
				l69.409,169.456l-50.616,673.375l-158.033,4.727c-1.118,0.033-2.199-0.398-2.988-1.19c-0.789-0.792-1.215-1.875-1.176-2.993
				l22.063-647.823c0,0,0.605-139.986,15.482-143.489C620.936,2003.487,665.52,1994.331,665.52,1994.331z"/>
			<path style="fill:#FFFFFF;" d="M781.327,2115.684l26.882-160.758l23.008,20.224l48.503-0.471l10.384,135.981l-69.209,695.837
				c-0.109,1.099-0.663,2.105-1.532,2.786c-0.869,0.68-1.979,0.977-3.072,0.819l-85.58-12.344L781.327,2115.684z"/>
			<path style="fill:#FFFFFF;" d="M873.35,1974.862c0,0,77.954-5.372,122.957-22.695c52.847,93.927,66.588,96.683,66.588,96.683
				s-64.013,56.787-172.79,61.81C781.327,2115.684,873.35,1974.862,873.35,1974.862z"/>
			
				<linearGradient id="SVGID_00000089575204295802359690000006585292434447030183_" gradientUnits="userSpaceOnUse" x1="3198.2766" y1="2157.1526" x2="3411.6851" y2="2003.5696" gradientTransform="matrix(1 0 0 1 -2394.1074 0)">
				<stop  offset="0" style="stop-color:#9CFFFB"/>
				<stop  offset="1" style="stop-color:#9BFFFA"/>
			</linearGradient>
			<polygon style="fill:url(#SVGID_00000089575204295802359690000006585292434447030183_);" points="812.577,2123.008 
				812.577,2139.49 872.838,2135.827 872.838,2117.515 			"/>
			<path style="fill:#91B3FA;" d="M777.582,2164.206c-0.396,0-0.799-0.094-1.173-0.296l-53.329-28.64
				c-0.692-0.371-1.168-1.049-1.285-1.826l-7.22-48.588l-18.865-3.349c-0.918-0.163-1.669-0.826-1.943-1.717l-20.577-66.843
				c-0.404-1.311,0.332-2.703,1.647-3.108c1.313-0.406,2.702,0.335,3.108,1.647l20.13,65.391l19.132,3.398
				c1.052,0.187,1.868,1.025,2.025,2.084l7.298,49.122l52.228,28.05c1.212,0.648,1.666,2.156,1.015,3.366
				C779.326,2163.733,778.469,2164.206,777.582,2164.206z"/>
			<path style="fill:#91B3FA;" d="M790.252,2147.537c-0.313,0-0.629-0.078-0.923-0.245c-0.894-0.51-1.204-1.649-0.695-2.545
				l27.877-48.868l-4.583-27.503c-0.131-0.789,0.258-1.576,0.964-1.953l22.156-11.79l-5.693-79.348
				c-0.073-1.027,0.699-1.921,1.726-1.994c1.047-0.039,1.921,0.7,1.994,1.727l5.781,80.557c0.053,0.736-0.333,1.433-0.984,1.78
				l-22.044,11.733l4.471,26.833c0.07,0.423-0.007,0.857-0.221,1.231l-28.205,49.446
				C791.529,2147.199,790.901,2147.537,790.252,2147.537z"/>
			<g>
				
					<linearGradient id="SVGID_00000052080520131198158960000015393902541132314776_" gradientUnits="userSpaceOnUse" x1="470.6834" y1="2255.199" x2="769.7808" y2="2255.199">
					<stop  offset="0" style="stop-color:#DAE3FE"/>
					<stop  offset="1" style="stop-color:#E9EFFD"/>
				</linearGradient>
				<path style="fill:url(#SVGID_00000052080520131198158960000015393902541132314776_);" d="M752.82,2232.634
					c0,0-128.154,72.427-171.395,10.583c-8.978-12.841-11.125-25.603-8.912-37.77c-38.414-19.396-77.66-25.006-99.227-26.594
					c-5.659,29.644-2.668,61.172,14.751,93.037c75.744,138.557,281.744-7.657,281.744-7.657L752.82,2232.634z"/>
				<g>
					
						<linearGradient id="SVGID_00000041998366762374357210000017670708888606845106_" gradientUnits="userSpaceOnUse" x1="3254.376" y1="2042.5503" x2="3418.8386" y2="2727.8132" gradientTransform="matrix(1 0 0 1 -2394.1074 0)">
						<stop  offset="0" style="stop-color:#4F52FF"/>
						<stop  offset="1" style="stop-color:#4042E2"/>
					</linearGradient>
					<path style="fill:url(#SVGID_00000041998366762374357210000017670708888606845106_);" d="M737.423,2324.261l69.942-244.253
						c0.794-2.772,3.159-4.795,6.024-5.128c12.672-1.479,49.391-5.63,91.787-9.216c51.067-4.32,110.372-7.82,145.81-4.842
						c5.038,0.423,8.082,5.752,5.842,10.284c-20.152,40.771-103.047,206.618-144.557,260.948c-1.376,1.8-3.502,2.851-5.767,2.831
						l-162.278-1.51C739.505,2333.332,736.123,2328.802,737.423,2324.261z"/>
					<path style="fill:#7D97F4;" d="M912.431,2044.489l50.709-8.449c2.701-0.45,4.912,2.13,4.054,4.731l-5.02,15.211
						c-0.436,1.324-1.591,2.282-2.974,2.468l-48.798,6.518c-2.524,0.337-4.605-1.957-4.025-4.437l3.108-13.281
						C909.82,2045.819,910.982,2044.73,912.431,2044.489z"/>
					<path style="fill:#7D97F4;" d="M874.461,2087.418l4.178-21.76c0.419-2.183,2.221-3.832,4.432-4.056l102.421-10.393
						c3.448-0.35,6.208,2.81,5.399,6.179l-6.512,27.114c-0.521,2.17-2.409,3.737-4.638,3.849l-100.086,5.038
						C876.396,2093.554,873.847,2090.621,874.461,2087.418z"/>
					
						<linearGradient id="SVGID_00000075861769962340588000000005762642154890273974_" gradientUnits="userSpaceOnUse" x1="3141.6812" y1="2223.8384" x2="3234.8625" y2="2223.8384" gradientTransform="matrix(1 0 0 1 -2394.1074 0)">
						<stop  offset="0" style="stop-color:#FEBBBA"/>
						<stop  offset="1" style="stop-color:#FF928E"/>
					</linearGradient>
					<path style="fill:url(#SVGID_00000075861769962340588000000005762642154890273974_);" d="M754.321,2265.25
						c0,0-9.743-40.063-5.813-54.276c3.93-14.214,11.545-32.488,36.926-28.428c25.381,4.061,55.321,14.753,55.321,14.753
						s-1.513,18.514-20.803,12.541l11.961,9.256c0,0-1.71,14.823-18.003,6.903l11.125,12.275c0,0-6.997,12.175-18.985,4.366
						C794.063,2234.832,788.317,2270.075,754.321,2265.25z"/>
				</g>
			</g>
			<path style="fill:#91B3FA;" d="M632.159,2269.964c-12.039,0-23.098-1.78-31.53-6.406c-1.202-0.66-1.644-2.174-0.984-3.379
				c0.665-1.204,2.167-1.636,3.379-0.983c33.81,18.561,117.743-13.401,118.586-13.726c0.255-0.088,16.327-5.68,22.022-16.798
				c0.629-1.222,2.122-1.702,3.347-1.078c1.221,0.624,1.705,2.122,1.078,3.346c-6.618,12.927-24.016,18.958-24.755,19.208
				C720.672,2251.16,671.278,2269.964,632.159,2269.964z"/>
			<path style="fill:#91B3FA;" d="M585.958,2342.094c-1.333,0-2.436-4.848-2.482-6.191c-0.048-1.373,1.027-4.418,2.4-4.464
				c96.931-3.337,152.229-48.668,152.775-49.115c1.059-0.874,2.626-1.188,3.5-0.126c0.869,1.062,0.716,6.182-0.348,7.053
				c-0.558,0.459-57.044,49.496-155.757,52.844C586.016,2342.094,585.987,2342.094,585.958,2342.094z"/>
			<g>
				
					<linearGradient id="SVGID_00000063619143891506347780000002620557761319525528_" gradientUnits="userSpaceOnUse" x1="1967.4764" y1="1039.598" x2="1803.4146" y2="1256.6385" gradientTransform="matrix(0.8116 -0.5843 0.5843 0.8116 -1398.8563 2074.8411)">
					<stop  offset="0" style="stop-color:#FEBBBA"/>
					<stop  offset="1" style="stop-color:#FF928E"/>
				</linearGradient>
				<path style="fill:url(#SVGID_00000063619143891506347780000002620557761319525528_);" d="M830.959,1749.4
					c1.264,1.755,40.704,139.226,40.704,139.226l-78.971,20.851l-56.74-124.739C735.952,1784.738,809.801,1720.011,830.959,1749.4z"
					/>
				
					<linearGradient id="SVGID_00000132073287278524388420000011967580255641963711_" gradientUnits="userSpaceOnUse" x1="1842.1779" y1="1091.7208" x2="2038.1536" y2="1091.7208" gradientTransform="matrix(0.8116 -0.5843 0.5843 0.8116 -1398.8563 2074.8411)">
					<stop  offset="0" style="stop-color:#09005D"/>
					<stop  offset="1" style="stop-color:#1A0F91"/>
				</linearGradient>
				<path style="fill:url(#SVGID_00000132073287278524388420000011967580255641963711_);" d="M767.313,1793.97
					c-1.936,3.083-2.34,6.864-1.097,10.285l24.37,67.02c0.37,1.017,0.86,1.967,1.497,2.842c3.513,4.822,15.93,19.274,30.335,5.671
					c12.279-11.593,23.722-22.079,34.419-25.244c6.246-1.848,12.773,1.862,14.546,8.13c3.653,12.911,10.495,39.114,13.306,63.248
					c0.704,6.049-3.424,11.596-9.4,12.766c-15.771,3.087-46.747,8.194-73.077,6.76c-4.326-0.236-8.151-2.822-9.992-6.743
					c-8.101-17.255-31.003-65.525-39.565-78.156c-7.955-11.735-26.871-11.561-35.527-10.795c-3.287,0.29-6.517-0.784-8.968-2.992
					c-7.348-6.624-19.445-21.92-2.065-40.471c4.322-4.613,3.995-11.936-0.527-16.352c-8.103-7.912-15.958-21.336-2.753-38.046
					c13.369-16.916,31.056-15.238,42.599-11.498c5.107,1.654,10.95-0.059,13.903-4.543c1.313-1.995,3.436-3.5,6.85-3.529
					c6.442-0.055,11.609-4.933,11.597-11.374c-0.022-11.044,4.229-24.562,23.029-30.606c34.48-11.086,56.357,22.12,58.726,47.028
					c2.369,24.909-35.697,34.803-58.148,33.332C784.878,1769.622,772.645,1785.477,767.313,1793.97z"/>
				
					<linearGradient id="SVGID_00000139989049683441492360000009453104318020949924_" gradientUnits="userSpaceOnUse" x1="1727.1887" y1="1211.4795" x2="1858.7805" y2="1076.4697" gradientTransform="matrix(0.8116 -0.5843 0.5843 0.8116 -1398.8563 2074.8411)">
					<stop  offset="0" style="stop-color:#FEBBBA"/>
					<stop  offset="1" style="stop-color:#FF928E"/>
				</linearGradient>
				<path style="fill:url(#SVGID_00000139989049683441492360000009453104318020949924_);" d="M761.905,1885.22
					c0,0-5.99-43.225-24.013-45.177c-18.023-1.953-35.408,13.008-17.282,37.131C743.157,1907.181,761.905,1885.22,761.905,1885.22z"
					/>
				<path style="fill:#91B3FA;" d="M836.997,1755.379c-0.469,0-0.945-0.133-1.367-0.413c-1.146-0.755-1.462-2.295-0.709-3.443
					c0.08-0.119,7.885-12.228,3.791-24.893c-3.033-9.386-11.771-16.893-25.971-22.314c-1.284-0.491-1.926-1.928-1.438-3.21
					c0.491-1.282,1.941-1.926,3.211-1.438c15.703,5.996,25.444,14.569,28.948,25.483c4.804,14.962-4.015,28.543-4.391,29.114
					C838.593,1754.988,837.803,1755.379,836.997,1755.379z"/>
			</g>
		</g>
		<g>
			<g>
				<g>
					<g>
						
							<linearGradient id="SVGID_00000003091774985896872440000017014640766104716731_" gradientUnits="userSpaceOnUse" x1="5986.4893" y1="3930.9917" x2="5307.9858" y2="4463.7544" gradientTransform="matrix(1 0.0025 -0.0025 1 -3011.4536 -1036.8652)">
							<stop  offset="0" style="stop-color:#09005D"/>
							<stop  offset="1" style="stop-color:#1A0F91"/>
						</linearGradient>
						<path style="fill:url(#SVGID_00000003091774985896872440000017014640766104716731_);" d="M2742.858,3044.599
							c-45.625-1.392-69.212-6.824-81.4-11.842c-0.041,4.536-0.026,9.153,0.109,13.937c0.145,5.11,3.919,9.201,8.574,9.183
							l250.532-0.987c7.995-0.031,12.69-9.292,9.244-16.632C2897.063,3040.89,2813.386,3046.75,2742.858,3044.599z"/>
						
							<linearGradient id="SVGID_00000134936179919036234500000012742534270087309200_" gradientUnits="userSpaceOnUse" x1="-6299.1377" y1="4062.9187" x2="-5698.7495" y2="3864.9531" gradientTransform="matrix(-1 -0.0025 -0.0025 1 -3386.8215 -1037.5903)">
							<stop  offset="0" style="stop-color:#09005D"/>
							<stop  offset="1" style="stop-color:#1A0F91"/>
						</linearGradient>
						<path style="fill:url(#SVGID_00000134936179919036234500000012742534270087309200_);" d="M2672.362,2949.214
							c5.789-20.357,24.634-34.13,45.786-33.41l20.92,0.713c111.284,26.98,167.48,88.682,189.528,119.654
							c0.428,0.601,0.685,1.252,0.987,1.891c-32.856,2.631-116.532,8.491-187.06,6.341c-45.626-1.393-69.212-6.826-81.401-11.843
							C2661.42,2996.941,2666.748,2968.959,2672.362,2949.214z"/>
					</g>
					
						<linearGradient id="SVGID_00000033331798039453000510000016181130486735465875_" gradientUnits="userSpaceOnUse" x1="2670.947" y1="2886.8933" x2="2815.8994" y2="2886.8933">
						<stop  offset="0" style="stop-color:#FEBBBA"/>
						<stop  offset="1" style="stop-color:#FF928E"/>
					</linearGradient>
					<path style="fill:url(#SVGID_00000033331798039453000510000016181130486735465875_);" d="M2670.947,2814.138l13.823,118.586
						c-0.19,12.311,8.392,22.203,19.166,23.108l46.083,3.739c10.774,0.904,31.876-6.061,32.067-18.371l33.814-127.062H2670.947z"/>
				</g>
				<g>
					<g>
						
							<linearGradient id="SVGID_00000106133090096338405370000016684381401825780920_" gradientUnits="userSpaceOnUse" x1="2811.3579" y1="3938.9294" x2="2132.8542" y2="4471.6924" gradientTransform="matrix(-1 0.0025 0.0025 1 4917.7153 -1036.8652)">
							<stop  offset="0" style="stop-color:#09005D"/>
							<stop  offset="1" style="stop-color:#1A0F91"/>
						</linearGradient>
						<path style="fill:url(#SVGID_00000106133090096338405370000016684381401825780920_);" d="M2338.556,3044.599
							c45.625-1.392,69.212-6.824,81.399-11.842c0.041,4.536,0.026,9.153-0.109,13.937c-0.145,5.11-3.919,9.201-8.574,9.183
							l-250.532-0.987c-7.995-0.031-12.69-9.292-9.244-16.632C2184.351,3040.89,2268.027,3046.75,2338.556,3044.599z"/>
						
							<linearGradient id="SVGID_00000076594412003347457210000006147720954705318532_" gradientUnits="userSpaceOnUse" x1="-3124.0061" y1="4070.8567" x2="-2523.6179" y2="3872.8911" gradientTransform="matrix(1 -0.0025 0.0025 1 5293.0835 -1037.5903)">
							<stop  offset="0" style="stop-color:#09005D"/>
							<stop  offset="1" style="stop-color:#1A0F91"/>
						</linearGradient>
						<path style="fill:url(#SVGID_00000076594412003347457210000006147720954705318532_);" d="M2409.052,2949.214
							c-5.789-20.357-24.635-34.13-45.786-33.41l-20.92,0.713c-111.284,26.98-167.48,88.682-189.528,119.654
							c-0.428,0.601-0.685,1.252-0.987,1.891c32.856,2.631,116.532,8.491,187.06,6.341c45.626-1.393,69.212-6.826,81.401-11.843
							C2419.993,2996.941,2414.665,2968.959,2409.052,2949.214z"/>
					</g>
					
						<linearGradient id="SVGID_00000016050479437549001240000012808818908822701733_" gradientUnits="userSpaceOnUse" x1="-504.2043" y1="2886.8933" x2="-359.2521" y2="2886.8933" gradientTransform="matrix(-1 0 0 1 1906.2618 0)">
						<stop  offset="0" style="stop-color:#FEBBBA"/>
						<stop  offset="1" style="stop-color:#FF928E"/>
					</linearGradient>
					<path style="fill:url(#SVGID_00000016050479437549001240000012808818908822701733_);" d="M2410.466,2814.138l-13.823,118.586
						c0.19,12.311-8.392,22.203-19.166,23.108l-46.083,3.739c-10.774,0.904-31.876-6.061-32.066-18.371l-33.814-127.062H2410.466z"
						/>
				</g>
			</g>
			
				<linearGradient id="SVGID_00000183207813985577698230000009975575117960265650_" gradientUnits="userSpaceOnUse" x1="2046.1157" y1="2407.4744" x2="3035.2971" y2="2407.4744">
				<stop  offset="0" style="stop-color:#09005D"/>
				<stop  offset="1" style="stop-color:#1A0F91"/>
			</linearGradient>
			<path style="fill:url(#SVGID_00000183207813985577698230000009975575117960265650_);" d="M3028.154,1928.247l-487.009,1.393
				l-487.755-1.393c0,0-46.591,297.266,96.057,504.335c46.016,138.046,73.337,321.749,91.743,366.177
				c18.406,44.429,27.321,85.684,27.321,85.684h151.851l63.689-490.823c3.05-23.489,23.06-41.482,46.748-41.482h20.707
				c22.818,0,42.091,16.219,45.03,38.847l79.653,495.717l136.083-4.334c0,0,9.106-40.218,27.511-84.646
				c18.406-44.428,45.918-227.049,91.934-365.095C3074.365,2225.558,3028.154,1928.247,3028.154,1928.247z"/>
			
				<linearGradient id="SVGID_00000050641187634139730630000012255655540172417720_" gradientUnits="userSpaceOnUse" x1="2775.6775" y1="1052.3615" x2="2504.4756" y2="1825.7881">
				<stop  offset="0" style="stop-color:#E1473D"/>
				<stop  offset="1" style="stop-color:#E9605A"/>
			</linearGradient>
			<path style="fill:url(#SVGID_00000050641187634139730630000012255655540172417720_);" d="M2964.927,2032.1
				c-127.486,78.618-183.825,150.401-388.043,158.962v0.275c-6.696,0.345-17.335,6.8-27.067,6.8h-18.221
				c-9.732,0-25.016-6.455-38.407-6.8v-0.275c-197.522-8.561-254.887-80.344-382.373-158.962
				c-142.671-88.005-62.39-294.382-30.156-399.919c32.303-105.604,19.537-250.002,60.951-403.99
				c27.816-103.535,131.939-150.125,196.821-169.521c10.492-3.175,20.139-3.764,28.145-5.628c16.152-3.659,26.42-3.211,26.42-3.211
				h295.418c0,0,10.009-0.447,26.159,3.211c7.938,1.864,17.395,3.367,27.885,6.541c64.882,19.396,168.486,65.53,196.302,169.065
				c41.414,153.989,26.852,298.158,59.155,403.761C3030.151,1737.946,3107.598,1944.096,2964.927,2032.1z"/>
			
				<linearGradient id="SVGID_00000018228595907298247950000009230332617104976016_" gradientUnits="userSpaceOnUse" x1="2449.0874" y1="1358.041" x2="2547.271" y2="1033.7375">
				<stop  offset="0" style="stop-color:#FEBBBA"/>
				<stop  offset="1" style="stop-color:#FF928E"/>
			</linearGradient>
			<path style="fill:url(#SVGID_00000018228595907298247950000009230332617104976016_);" d="M2714.575,1053.042
				c-18.498,95.528-89.315,165.156-173.869,165.156c-84.691,0-155.577-69.035-173.938-164.699
				c16.152-3.659,26.229-3.668,26.229-3.668h295.418C2688.416,1049.83,2698.424,1049.383,2714.575,1053.042z"/>
			<g>
				
					<linearGradient id="SVGID_00000129198991092777160870000016121340576881368243_" gradientUnits="userSpaceOnUse" x1="2343.7136" y1="1124.2115" x2="2394.0381" y2="957.9884">
					<stop  offset="0" style="stop-color:#FEBBBA"/>
					<stop  offset="1" style="stop-color:#FF928E"/>
				</linearGradient>
				<path style="fill:url(#SVGID_00000129198991092777160870000016121340576881368243_);" d="M2404.961,947.907
					c0,0-49.593-36.299-45.05,42.491c4.543,78.791,36.909,63.738,36.909,63.738L2404.961,947.907z"/>
				
					<linearGradient id="SVGID_00000110451998720751202090000009429263635809279902_" gradientUnits="userSpaceOnUse" x1="-767.3705" y1="1124.2115" x2="-717.0461" y2="957.9885" gradientTransform="matrix(-1 0 0 1 1964.0972 0)">
					<stop  offset="0" style="stop-color:#FEBBBA"/>
					<stop  offset="1" style="stop-color:#FF928E"/>
				</linearGradient>
				<path style="fill:url(#SVGID_00000110451998720751202090000009429263635809279902_);" d="M2670.221,947.907
					c0,0,49.593-36.299,45.05,42.491c-4.542,78.791-36.909,63.738-36.909,63.738L2670.221,947.907z"/>
			</g>
			
				<linearGradient id="SVGID_00000099624922527714047120000004113229966815894426_" gradientUnits="userSpaceOnUse" x1="2516.7083" y1="1192.0652" x2="2584.7429" y2="686.4042">
				<stop  offset="0" style="stop-color:#FEBBBA"/>
				<stop  offset="1" style="stop-color:#FF928E"/>
			</linearGradient>
			<path style="fill:url(#SVGID_00000099624922527714047120000004113229966815894426_);" d="M2409.13,882.822
				c-18.941,78.247-45.459,215.366,24.219,275.604c44.673,38.621,111.671,42.292,165.987,28.241
				c138.09-35.724,82.359-253.908,63.312-356.763C2662.647,829.904,2452.845,749.377,2409.13,882.822z"/>
			
				<linearGradient id="SVGID_00000091705896730083791640000014984753300712608935_" gradientUnits="userSpaceOnUse" x1="2532.0332" y1="960.8495" x2="2572.884" y2="657.2305">
				<stop  offset="0" style="stop-color:#09005D"/>
				<stop  offset="1" style="stop-color:#1A0F91"/>
			</linearGradient>
			<path style="fill:url(#SVGID_00000091705896730083791640000014984753300712608935_);" d="M2396.384,943.06
				c0,0,8.577-118.909,61.495-87.848c52.917,31.06,66.722,55.064,112.737,41.336c46.015-13.727,61.938-72.591,82.828-29.832
				c20.889,42.759,33.508,109.866,33.508,109.866s14.808-82.257,11.357-116.768c-3.451-34.512-1.15-127.693-77.076-119.64
				c0,0-67.872,39.113-136.896,33.361C2397.507,766.3,2366.179,879.386,2396.384,943.06z"/>
			
				<linearGradient id="SVGID_00000065058130793236063620000016827808450738359723_" gradientUnits="userSpaceOnUse" x1="2072.5645" y1="1237.3453" x2="1737.782" y2="-891.8752">
				<stop  offset="0" style="stop-color:#FEBBBA"/>
				<stop  offset="1" style="stop-color:#FF928E"/>
			</linearGradient>
			<path style="fill:url(#SVGID_00000065058130793236063620000016827808450738359723_);" d="M2348.593,1953.829
				c8.052,1.149,14.954,0,0-33.362c-14.955-33.361-95.521-14.954-95.521-14.954s-171.368-280.809-109.248-371.632
				c62.121-90.823,197.789-241.793,109.248-438.949c0,0-268.001,120.351-312.866,275.652
				c-44.585,154.331-72.061,485.856,276.441,642.402c0.015,0.02,0.027,0.04,0.042,0.061c34.902,45.412,97.392,45.466,152.611,27.061
				C2424.518,2021.701,2340.54,1952.678,2348.593,1953.829z"/>
			
				<linearGradient id="SVGID_00000052825410933716562820000017452421639484638127_" gradientUnits="userSpaceOnUse" x1="3132.3838" y1="1235.1422" x2="4592.0376" y2="-626.249">
				<stop  offset="0" style="stop-color:#FEBBBA"/>
				<stop  offset="1" style="stop-color:#FF928E"/>
			</linearGradient>
			<path style="fill:url(#SVGID_00000052825410933716562820000017452421639484638127_);" d="M2727.056,1953.829
				c-8.052,1.149-14.954,0,0-33.362c14.955-33.361,95.521-14.954,95.521-14.954s171.368-280.809,109.248-371.632
				c-62.121-90.823-197.788-241.793-109.248-438.949c0,0,268.001,120.351,312.866,275.652
				c44.585,154.331,72.061,485.856-276.441,642.402c-0.015,0.02-0.027,0.04-0.042,0.061
				c-34.902,45.412-97.392,45.466-152.611,27.061C2651.132,2021.701,2735.11,1952.678,2727.056,1953.829z"/>
			<g>
				
					<linearGradient id="SVGID_00000181068025575792104510000005452448707776278670_" gradientUnits="userSpaceOnUse" x1="2595.0264" y1="1452.9501" x2="2429.3713" y2="2084.511">
					<stop  offset="0" style="stop-color:#233894"/>
					<stop  offset="0.9964" style="stop-color:#DD397A"/>
				</linearGradient>
				<path style="fill:url(#SVGID_00000181068025575792104510000005452448707776278670_);" d="M2773.08,1673.133
					c-0.638,0-1.281-0.175-1.858-0.546c-200.999-128.723-454.561-37.416-457.095-36.479c-1.79,0.667-3.771-0.25-4.435-2.042
					c-0.66-1.786,0.256-3.768,2.042-4.429c2.571-0.95,259.359-93.417,463.209,37.141c1.607,1.025,2.073,3.161,1.044,4.766
					C2775.331,1672.574,2774.215,1673.133,2773.08,1673.133z"/>
			</g>
		</g>
	</g>
</g>
</svg>
